<svg xmlns="http://www.w3.org/2000/svg" xmlns:xlink="http://www.w3.org/1999/xlink" width="500" zoomAndPan="magnify" viewBox="0 0 375 374.999991" height="500" preserveAspectRatio="xMidYMid meet" version="1.0"><defs><g/><clipPath id="7160a8b8ff"><path d="M 56.417969 56.417969 L 318.582031 56.417969 L 318.582031 318.582031 L 56.417969 318.582031 Z M 56.417969 56.417969 " clip-rule="nonzero"/></clipPath><clipPath id="7af923337a"><path d="M 187.5 56.417969 C 115.105469 56.417969 56.417969 115.105469 56.417969 187.5 C 56.417969 259.894531 115.105469 318.582031 187.5 318.582031 C 259.894531 318.582031 318.582031 259.894531 318.582031 187.5 C 318.582031 115.105469 259.894531 56.417969 187.5 56.417969 Z M 187.5 56.417969 " clip-rule="nonzero"/></clipPath><clipPath id="fdf2a12674"><path d="M 0.417969 0.417969 L 262.582031 0.417969 L 262.582031 262.582031 L 0.417969 262.582031 Z M 0.417969 0.417969 " clip-rule="nonzero"/></clipPath><clipPath id="fce669ffd4"><path d="M 131.5 0.417969 C 59.105469 0.417969 0.417969 59.105469 0.417969 131.5 C 0.417969 203.894531 59.105469 262.582031 131.5 262.582031 C 203.894531 262.582031 262.582031 203.894531 262.582031 131.5 C 262.582031 59.105469 203.894531 0.417969 131.5 0.417969 Z M 131.5 0.417969 " clip-rule="nonzero"/></clipPath><clipPath id="4ed2a0674f"><rect x="0" width="263" y="0" height="263"/></clipPath><clipPath id="41a230c502"><path d="M 56.417969 56.417969 L 318.578125 56.417969 L 318.578125 318.578125 L 56.417969 318.578125 Z M 56.417969 56.417969 " clip-rule="nonzero"/></clipPath><clipPath id="9a3ac8ed9d"><path d="M 187.496094 56.417969 C 115.105469 56.417969 56.417969 115.105469 56.417969 187.496094 C 56.417969 259.890625 115.105469 318.578125 187.496094 318.578125 C 259.890625 318.578125 318.578125 259.890625 318.578125 187.496094 C 318.578125 115.105469 259.890625 56.417969 187.496094 56.417969 Z M 187.496094 56.417969 " clip-rule="nonzero"/></clipPath><clipPath id="5491804da7"><rect x="0" width="108" y="0" height="137"/></clipPath><clipPath id="bafea29d5b"><rect x="0" width="94" y="0" height="137"/></clipPath><clipPath id="d89f7ded77"><path d="M 80.050781 80.050781 L 294.949219 80.050781 L 294.949219 294.949219 L 80.050781 294.949219 Z M 80.050781 80.050781 " clip-rule="nonzero"/></clipPath><clipPath id="042161d512"><path d="M 187.5 80.050781 C 128.15625 80.050781 80.050781 128.15625 80.050781 187.5 C 80.050781 246.84375 128.15625 294.949219 187.5 294.949219 C 246.84375 294.949219 294.949219 246.84375 294.949219 187.5 C 294.949219 128.15625 246.84375 80.050781 187.5 80.050781 Z M 187.5 80.050781 " clip-rule="nonzero"/></clipPath><clipPath id="6dc5cccde3"><rect x="0" width="125" y="0" height="132"/></clipPath><clipPath id="651c08065d"><rect x="0" width="105" y="0" height="112"/></clipPath></defs><g clip-path="url(#7160a8b8ff)"><g clip-path="url(#7af923337a)"><g transform="matrix(1, 0, 0, 1, 56, 56)"><g clip-path="url(#4ed2a0674f)"><g clip-path="url(#fdf2a12674)"><g clip-path="url(#fce669ffd4)"><path fill="#000000" d="M 0.417969 0.417969 L 262.582031 0.417969 L 262.582031 262.582031 L 0.417969 262.582031 Z M 0.417969 0.417969 " fill-opacity="1" fill-rule="nonzero"/></g></g></g></g></g></g><g clip-path="url(#41a230c502)"><g clip-path="url(#9a3ac8ed9d)"><path stroke-linecap="butt" transform="matrix(0.75, 0, 0, 0.75, 56.417221, 56.417216)" fill="none" stroke-linejoin="miter" d="M 174.771842 0.00100327 C 78.251002 0.00100327 0.000997273 78.251008 0.000997273 174.771848 C 0.000997273 271.297896 78.251002 349.547901 174.771842 349.547901 C 271.29789 349.547901 349.547895 271.297896 349.547895 174.771848 C 349.547895 78.251008 271.29789 0.00100327 174.771842 0.00100327 Z M 174.771842 0.00100327 " stroke="#000000" stroke-width="4" stroke-opacity="1" stroke-miterlimit="4"/></g></g><g transform="matrix(1, 0, 0, 1, 120, 125)"><g clip-path="url(#5491804da7)"><g fill="#000000" fill-opacity="1"><g transform="translate(1.168948, 108.116502)"><g><path d="M 93.890625 -77.90625 L 93.890625 2.296875 L 87.074219 2.296875 L 87.074219 -73.121094 L 89.371094 -73.121094 L 91.363281 -71.980469 L 55.199219 -8.722656 L 51.203125 -8.722656 L 15.035156 -71.757812 L 17.027344 -72.898438 L 19.324219 -72.898438 L 19.324219 2.296875 L 12.507812 2.296875 L 12.507812 -80.203125 L 18.027344 -80.203125 L 55.191406 -15.160156 L 53.199219 -14.023438 L 51.207031 -15.160156 L 88.371094 -80.203125 L 93.890625 -80.203125 Z M 89.300781 -77.90625 L 91.597656 -77.90625 L 91.597656 -75.609375 L 89.703125 -75.609375 L 89.703125 -77.90625 L 91.695312 -76.769531 L 53.199219 -9.394531 L 14.703125 -76.769531 L 16.695312 -77.90625 L 16.695312 -75.609375 L 14.800781 -75.609375 L 14.800781 -77.90625 L 17.097656 -77.90625 L 17.097656 0 L 14.800781 0 L 14.800781 -2.296875 L 17.027344 -2.296875 L 17.027344 0 L 14.734375 0 L 14.734375 -81.511719 L 54.523438 -12.160156 L 52.53125 -11.019531 L 52.53125 -13.3125 L 53.867188 -13.3125 L 53.867188 -11.019531 L 51.875 -12.15625 L 91.664062 -81.761719 L 91.664062 0 L 89.371094 0 L 89.371094 -2.296875 L 91.597656 -2.296875 L 91.597656 0 L 89.300781 0 Z M 89.300781 -77.90625 "/></g></g></g><g fill="#ffffff" fill-opacity="1"><g transform="translate(1.168948, 108.116502)"><g><path d="M 91.59375 -77.90625 L 91.59375 0 L 89.375 0 L 89.375 -73.125 L 53.875 -11.015625 L 52.53125 -11.015625 L 17.03125 -72.90625 L 17.03125 0 L 14.796875 0 L 14.796875 -77.90625 L 16.6875 -77.90625 L 53.203125 -14.015625 L 89.703125 -77.90625 Z M 91.59375 -77.90625 "/></g></g></g></g></g><g transform="matrix(1, 0, 0, 1, 164, 94)"><g clip-path="url(#bafea29d5b)"><g fill="#000000" fill-opacity="1"><g transform="translate(0.194256, 107.906653)"><g><path d="M 46.519531 2.628906 C 38.628906 2.628906 31.464844 0.824219 25.03125 -2.785156 C 18.585938 -6.398438 13.511719 -11.375 9.816406 -17.707031 C 6.117188 -24.039062 4.269531 -31.121094 4.269531 -38.953125 C 4.269531 -46.785156 6.117188 -53.867188 9.816406 -60.199219 C 13.511719 -66.53125 18.585938 -71.507812 25.03125 -75.121094 C 31.464844 -78.730469 38.628906 -80.535156 46.519531 -80.535156 C 54.414062 -80.535156 61.578125 -78.730469 68.011719 -75.121094 C 74.457031 -71.507812 79.53125 -66.53125 83.226562 -60.199219 C 86.921875 -53.867188 88.773438 -46.785156 88.773438 -38.953125 C 88.773438 -31.121094 86.921875 -24.039062 83.226562 -17.707031 C 79.53125 -11.375 74.457031 -6.398438 68.011719 -2.785156 C 61.578125 0.824219 54.414062 2.628906 46.519531 2.628906 Z M 46.519531 -1.960938 C 53.617188 -1.960938 60.03125 -3.570312 65.765625 -6.789062 C 71.488281 -9.996094 75.984375 -14.410156 79.261719 -20.023438 C 82.542969 -25.636719 84.179688 -31.949219 84.179688 -38.953125 C 84.179688 -45.957031 82.542969 -52.269531 79.261719 -57.882812 C 75.984375 -63.496094 71.488281 -67.910156 65.765625 -71.117188 C 60.03125 -74.335938 53.617188 -75.945312 46.519531 -75.945312 C 39.425781 -75.945312 33.011719 -74.335938 27.277344 -71.117188 C 21.554688 -67.910156 17.058594 -63.496094 13.78125 -57.882812 C 10.5 -52.269531 8.863281 -45.957031 8.863281 -38.953125 C 8.863281 -31.949219 10.5 -25.636719 13.78125 -20.023438 C 17.058594 -14.410156 21.554688 -9.996094 27.277344 -6.789062 C 33.011719 -3.570312 39.425781 -1.960938 46.519531 -1.960938 Z M 46.519531 -4.078125 C 53.167969 -4.078125 59.195312 -5.59375 64.597656 -8.625 C 69.984375 -11.648438 74.222656 -15.816406 77.3125 -21.132812 C 80.40625 -26.449219 81.953125 -32.390625 81.953125 -38.953125 C 81.953125 -45.515625 80.40625 -51.457031 77.3125 -56.773438 C 74.222656 -62.089844 69.984375 -66.257812 64.597656 -69.28125 C 59.195312 -72.316406 53.167969 -73.832031 46.519531 -73.832031 C 39.871094 -73.832031 33.847656 -72.316406 28.445312 -69.28125 C 23.058594 -66.257812 18.820312 -62.089844 15.730469 -56.773438 C 12.636719 -51.457031 11.085938 -45.515625 11.085938 -38.953125 C 11.085938 -32.390625 12.636719 -26.449219 15.730469 -21.132812 C 18.820312 -15.816406 23.058594 -11.648438 28.445312 -8.625 C 33.847656 -5.59375 39.871094 -4.078125 46.519531 -4.078125 Z M 46.519531 0.515625 C 39.074219 0.515625 32.296875 -1.195312 26.199219 -4.621094 C 20.085938 -8.050781 15.273438 -12.785156 11.761719 -18.824219 C 8.25 -24.855469 6.496094 -31.566406 6.496094 -38.953125 C 6.496094 -46.339844 8.25 -53.050781 11.761719 -59.082031 C 15.273438 -65.121094 20.085938 -69.855469 26.199219 -73.285156 C 32.296875 -76.710938 39.074219 -78.421875 46.519531 -78.421875 C 53.96875 -78.421875 60.746094 -76.710938 66.84375 -73.285156 C 72.957031 -69.855469 77.769531 -65.121094 81.28125 -59.082031 C 84.792969 -53.050781 86.546875 -46.339844 86.546875 -38.953125 C 86.546875 -31.566406 84.792969 -24.855469 81.28125 -18.824219 C 77.769531 -12.785156 72.957031 -8.050781 66.84375 -4.621094 C 60.746094 -1.195312 53.96875 0.515625 46.519531 0.515625 Z M 46.519531 0.515625 "/></g></g></g><g fill="#ffffff" fill-opacity="1"><g transform="translate(0.194256, 107.906653)"><g><path d="M 46.515625 0.328125 C 39.023438 0.328125 32.238281 -1.375 26.15625 -4.78125 C 20.070312 -8.195312 15.285156 -12.890625 11.796875 -18.859375 C 8.304688 -24.835938 6.5625 -31.535156 6.5625 -38.953125 C 6.5625 -46.367188 8.304688 -53.0625 11.796875 -59.03125 C 15.285156 -65.007812 20.070312 -69.703125 26.15625 -73.109375 C 32.238281 -76.523438 39.023438 -78.234375 46.515625 -78.234375 C 54.015625 -78.234375 60.804688 -76.523438 66.890625 -73.109375 C 72.972656 -69.703125 77.757812 -65.007812 81.25 -59.03125 C 84.738281 -53.0625 86.484375 -46.367188 86.484375 -38.953125 C 86.484375 -31.535156 84.738281 -24.835938 81.25 -18.859375 C 77.757812 -12.890625 72.972656 -8.195312 66.890625 -4.78125 C 60.804688 -1.375 54.015625 0.328125 46.515625 0.328125 Z M 46.515625 -1.78125 C 53.566406 -1.78125 59.96875 -3.394531 65.71875 -6.625 C 71.46875 -9.851562 75.992188 -14.300781 79.296875 -19.96875 C 82.597656 -25.644531 84.25 -31.972656 84.25 -38.953125 C 84.25 -45.929688 82.597656 -52.253906 79.296875 -57.921875 C 75.992188 -63.597656 71.46875 -68.050781 65.71875 -71.28125 C 59.96875 -74.507812 53.566406 -76.125 46.515625 -76.125 C 39.472656 -76.125 33.078125 -74.507812 27.328125 -71.28125 C 21.578125 -68.050781 17.050781 -63.597656 13.75 -57.921875 C 10.445312 -52.253906 8.796875 -45.929688 8.796875 -38.953125 C 8.796875 -31.972656 10.445312 -25.644531 13.75 -19.96875 C 17.050781 -14.300781 21.578125 -9.851562 27.328125 -6.625 C 33.078125 -3.394531 39.472656 -1.78125 46.515625 -1.78125 Z M 46.515625 -1.78125 "/></g></g></g></g></g><g clip-path="url(#d89f7ded77)"><g clip-path="url(#042161d512)"><path stroke-linecap="butt" transform="matrix(0.75, 0, 0, 0.75, 80.050686, 80.050682)" fill="none" stroke-linejoin="miter" d="M 143.265761 0.000132409 C 64.140756 0.000132409 0.000126409 64.140762 0.000126409 143.265767 C 0.000126409 222.390772 64.140756 286.531401 143.265761 286.531401 C 222.390766 286.531401 286.531395 222.390772 286.531395 143.265767 C 286.531395 64.140762 222.390766 0.000132409 143.265761 0.000132409 Z M 143.265761 0.000132409 " stroke="#ffffff" stroke-width="6" stroke-opacity="1" stroke-miterlimit="4"/></g></g><g transform="matrix(1, 0, 0, 1, 51, 60)"><g clip-path="url(#6dc5cccde3)"><path fill="#000000" d="M 24.695312 122.429688 C 24.296875 122.398438 23.902344 122.332031 23.515625 122.226562 C 23.125 122.121094 22.753906 121.976562 22.390625 121.796875 C 22.03125 121.621094 21.691406 121.410156 21.371094 121.164062 C 21.054688 120.921875 20.761719 120.648438 20.496094 120.347656 C 20.226562 120.046875 19.992188 119.722656 19.789062 119.375 C 19.585938 119.027344 19.417969 118.664062 19.28125 118.285156 C 19.148438 117.90625 19.054688 117.519531 18.996094 117.121094 C 18.9375 116.722656 18.917969 116.324219 18.933594 115.921875 C 19.234375 112.988281 19.648438 110.070312 20.171875 107.167969 C 20.699219 104.269531 21.335938 101.390625 22.085938 98.539062 C 22.835938 95.6875 23.695312 92.867188 24.664062 90.082031 C 25.632812 87.296875 26.707031 84.554688 27.886719 81.851562 C 29.070312 79.148438 30.355469 76.496094 31.742188 73.894531 C 33.128906 71.292969 34.613281 68.746094 36.199219 66.261719 C 37.785156 63.773438 39.460938 61.351562 41.234375 58.996094 C 43.007812 56.636719 44.871094 54.355469 46.820312 52.140625 C 48.769531 49.929688 50.804688 47.796875 52.917969 45.742188 C 55.035156 43.6875 57.226562 41.71875 59.496094 39.835938 C 61.765625 37.949219 64.101562 36.15625 66.511719 34.453125 C 68.917969 32.75 71.386719 31.144531 73.921875 29.632812 C 76.453125 28.125 79.042969 26.714844 81.683594 25.402344 C 84.324219 24.09375 87.015625 22.886719 89.75 21.785156 C 92.484375 20.6875 95.261719 19.691406 98.074219 18.804688 C 100.886719 17.921875 103.730469 17.144531 106.601562 16.480469 C 106.996094 16.410156 107.398438 16.378906 107.796875 16.390625 C 108.199219 16.398438 108.597656 16.445312 108.992188 16.527344 C 109.382812 16.613281 109.765625 16.734375 110.132812 16.894531 C 110.503906 17.054688 110.855469 17.246094 111.1875 17.472656 C 111.519531 17.699219 111.824219 17.957031 112.109375 18.242188 C 112.390625 18.527344 112.640625 18.839844 112.863281 19.171875 C 113.085938 19.507812 113.273438 19.863281 113.429688 20.234375 C 113.582031 20.605469 113.699219 20.988281 113.78125 21.378906 L 115.921875 33.660156 C 116.007812 34.070312 116.054688 34.480469 116.058594 34.902344 C 116.058594 35.320312 116.019531 35.734375 115.941406 36.144531 C 115.859375 36.554688 115.738281 36.953125 115.578125 37.339844 C 115.417969 37.726562 115.21875 38.089844 114.984375 38.4375 C 114.75 38.785156 114.484375 39.105469 114.1875 39.398438 C 113.886719 39.6875 113.5625 39.949219 113.210938 40.175781 C 112.859375 40.402344 112.488281 40.59375 112.101562 40.746094 C 111.710938 40.898438 111.308594 41.011719 110.898438 41.082031 C 108.714844 41.625 106.558594 42.246094 104.425781 42.949219 C 102.289062 43.652344 100.1875 44.4375 98.113281 45.300781 C 96.039062 46.160156 93.996094 47.101562 91.996094 48.121094 C 89.992188 49.136719 88.027344 50.226562 86.109375 51.394531 C 84.1875 52.558594 82.3125 53.796875 80.484375 55.105469 C 78.660156 56.414062 76.882812 57.789062 75.160156 59.230469 C 73.4375 60.671875 71.769531 62.175781 70.160156 63.746094 C 68.550781 65.3125 67.003906 66.941406 65.519531 68.625 C 64.035156 70.3125 62.613281 72.050781 61.257812 73.84375 C 59.90625 75.636719 58.621094 77.480469 57.40625 79.371094 C 56.191406 81.257812 55.050781 83.191406 53.980469 85.171875 C 52.914062 87.148438 51.921875 89.160156 51.003906 91.214844 C 50.089844 93.265625 49.25 95.347656 48.492188 97.464844 C 47.734375 99.578125 47.058594 101.71875 46.460938 103.886719 C 45.867188 106.054688 45.351562 108.238281 44.921875 110.445312 C 44.492188 112.648438 44.144531 114.867188 43.882812 117.101562 C 43.863281 117.519531 43.800781 117.929688 43.699219 118.335938 C 43.597656 118.742188 43.453125 119.132812 43.273438 119.507812 C 43.089844 119.886719 42.875 120.242188 42.621094 120.574219 C 42.367188 120.90625 42.085938 121.210938 41.769531 121.488281 C 41.457031 121.765625 41.117188 122.003906 40.753906 122.214844 C 40.390625 122.421875 40.011719 122.589844 39.613281 122.722656 C 39.21875 122.855469 38.8125 122.945312 38.394531 122.992188 C 37.980469 123.042969 37.5625 123.050781 37.148438 123.015625 Z M 24.695312 122.429688 " fill-opacity="1" fill-rule="nonzero"/><g fill="#ffffff" fill-opacity="1"><g transform="translate(35.416478, 113.615714)"><g><path d="M -6.984375 -4.328125 L -7.5 -1.390625 L -8.5625 -1.578125 L -7.296875 -8.6875 L -6.234375 -8.5 L -6.765625 -5.546875 L 0.75 -4.203125 L 0.53125 -2.984375 Z M -6.984375 -4.328125 "/></g></g></g><g fill="#ffffff" fill-opacity="1"><g transform="translate(38.680117, 98.988859)"><g><path d="M -7.890625 -3.9375 L -7.515625 -5.109375 L 0.78125 -2.421875 L 0.40625 -1.25 Z M -7.890625 -3.9375 "/></g></g></g><g fill="#ffffff" fill-opacity="1"><g transform="translate(42.586658, 88.13967)"><g><path d="M 2.375 -7.34375 L 3.34375 -6.875 L 0.578125 -1.1875 L -7.265625 -5 L -4.578125 -10.515625 L -3.609375 -10.046875 L -5.765625 -5.640625 L -3.34375 -4.46875 L -1.421875 -8.390625 L -0.46875 -7.921875 L -2.390625 -4 L 0.140625 -2.765625 Z M 2.375 -7.34375 "/></g></g></g><g fill="#ffffff" fill-opacity="1"><g transform="translate(50.05905, 74.099771)"><g><path d="M -1.9375 -12.234375 L 5.140625 -7.140625 L 4.546875 -6.3125 L -3.78125 -5.859375 L 1.484375 -2.0625 L 0.765625 -1.0625 L -6.3125 -6.15625 L -5.71875 -6.984375 L 2.625 -7.4375 L -2.65625 -11.234375 Z M -1.9375 -12.234375 "/></g></g></g><g fill="#ffffff" fill-opacity="1"><g transform="translate(60.908891, 60.195714)"><g><path d="M -5.09375 -7.1875 L -2.453125 -9.734375 C -1.796875 -10.367188 -1.082031 -10.800781 -0.3125 -11.03125 C 0.457031 -11.269531 1.210938 -11.285156 1.953125 -11.078125 C 2.703125 -10.878906 3.375 -10.472656 3.96875 -9.859375 C 4.5625 -9.242188 4.941406 -8.554688 5.109375 -7.796875 C 5.285156 -7.046875 5.238281 -6.289062 4.96875 -5.53125 C 4.707031 -4.78125 4.25 -4.085938 3.59375 -3.453125 L 0.953125 -0.90625 Z M 2.78125 -4.1875 C 3.289062 -4.675781 3.644531 -5.203125 3.84375 -5.765625 C 4.039062 -6.335938 4.070312 -6.898438 3.9375 -7.453125 C 3.800781 -8.003906 3.507812 -8.515625 3.0625 -8.984375 C 2.613281 -9.453125 2.113281 -9.765625 1.5625 -9.921875 C 1.019531 -10.078125 0.457031 -10.070312 -0.125 -9.90625 C -0.707031 -9.738281 -1.253906 -9.410156 -1.765625 -8.921875 L -3.453125 -7.28125 L 1.09375 -2.546875 Z M 2.78125 -4.1875 "/></g></g></g><g fill="#ffffff" fill-opacity="1"><g transform="translate(74.368789, 48.390477)"><g><path d="M -3.953125 -7.875 L -2.953125 -8.59375 L 2.078125 -1.46875 L 1.078125 -0.75 Z M -3.953125 -7.875 "/></g></g></g><g fill="#ffffff" fill-opacity="1"><g transform="translate(84.024255, 42.058035)"><g><path d="M -0.84375 -8.1875 L -3.484375 -6.796875 L -3.984375 -7.75 L 2.40625 -11.09375 L 2.90625 -10.140625 L 0.25 -8.75 L 3.78125 -1.96875 L 2.6875 -1.40625 Z M -0.84375 -8.1875 "/></g></g></g><g fill="#ffffff" fill-opacity="1"><g transform="translate(97.486038, 35.660995)"><g><path d="M 5.828125 -4.203125 L 1.4375 -2.765625 L 1.203125 -0.390625 L -0.015625 0 L 1 -9.515625 L 2.171875 -9.90625 L 8.671875 -2.859375 L 7.4375 -2.453125 Z M 5.09375 -5.03125 L 1.984375 -8.5 L 1.53125 -3.859375 Z M 5.09375 -5.03125 "/></g></g></g></g></g><g transform="matrix(1, 0, 0, 1, 210, 198)"><g clip-path="url(#651c08065d)"><path fill="#000000" d="M 86.320312 10.609375 C 86.714844 10.6875 87.097656 10.800781 87.46875 10.953125 C 87.84375 11.105469 88.195312 11.289062 88.53125 11.507812 C 88.871094 11.730469 89.183594 11.980469 89.46875 12.261719 C 89.757812 12.539062 90.015625 12.847656 90.246094 13.175781 C 90.472656 13.507812 90.667969 13.855469 90.832031 14.226562 C 90.992188 14.59375 91.117188 14.972656 91.203125 15.367188 C 91.292969 15.757812 91.339844 16.15625 91.351562 16.558594 C 91.363281 16.957031 91.335938 17.359375 91.269531 17.753906 C 90.238281 22.339844 88.929688 26.84375 87.34375 31.265625 C 85.757812 35.6875 83.90625 39.996094 81.789062 44.1875 C 79.667969 48.382812 77.300781 52.429688 74.679688 56.328125 C 72.0625 60.230469 69.210938 63.953125 66.132812 67.5 C 63.050781 71.050781 59.765625 74.394531 56.269531 77.535156 C 52.777344 80.675781 49.101562 83.589844 45.25 86.277344 C 41.394531 88.964844 37.390625 91.402344 33.234375 93.59375 C 29.078125 95.785156 24.804688 97.714844 20.410156 99.375 C 20.027344 99.496094 19.632812 99.582031 19.234375 99.628906 C 18.835938 99.671875 18.433594 99.679688 18.035156 99.648438 C 17.632812 99.617188 17.238281 99.546875 16.851562 99.4375 C 16.464844 99.332031 16.09375 99.1875 15.734375 99.007812 C 15.375 98.828125 15.035156 98.613281 14.714844 98.367188 C 14.398438 98.121094 14.105469 97.847656 13.839844 97.546875 C 13.578125 97.242188 13.34375 96.917969 13.140625 96.570312 C 12.9375 96.222656 12.769531 95.859375 12.640625 95.480469 L 8.871094 83.601562 C 8.730469 83.207031 8.632812 82.800781 8.574219 82.386719 C 8.515625 81.972656 8.496094 81.558594 8.523438 81.140625 C 8.546875 80.722656 8.613281 80.3125 8.71875 79.90625 C 8.828125 79.503906 8.972656 79.113281 9.160156 78.738281 C 9.347656 78.363281 9.566406 78.011719 9.824219 77.679688 C 10.082031 77.351562 10.371094 77.050781 10.6875 76.777344 C 11.003906 76.503906 11.347656 76.269531 11.710938 76.0625 C 12.078125 75.859375 12.460938 75.695312 12.859375 75.570312 C 16.164062 74.261719 19.382812 72.757812 22.507812 71.0625 C 25.632812 69.367188 28.648438 67.492188 31.550781 65.4375 C 34.453125 63.378906 37.222656 61.15625 39.855469 58.769531 C 42.492188 56.382812 44.976562 53.84375 47.308594 51.160156 C 49.640625 48.472656 51.800781 45.660156 53.796875 42.714844 C 55.789062 39.769531 57.601562 36.714844 59.230469 33.554688 C 60.855469 30.390625 62.289062 27.144531 63.53125 23.808594 C 64.769531 20.476562 65.804688 17.082031 66.636719 13.621094 C 66.707031 13.210938 66.816406 12.808594 66.964844 12.417969 C 67.117188 12.027344 67.304688 11.65625 67.527344 11.304688 C 67.753906 10.949219 68.011719 10.625 68.300781 10.324219 C 68.59375 10.023438 68.910156 9.753906 69.253906 9.515625 C 69.601562 9.28125 69.964844 9.078125 70.351562 8.917969 C 70.734375 8.753906 71.132812 8.628906 71.542969 8.546875 C 71.953125 8.464844 72.367188 8.421875 72.785156 8.421875 C 73.203125 8.421875 73.617188 8.464844 74.027344 8.546875 Z M 86.320312 10.609375 " fill-opacity="1" fill-rule="nonzero"/><g fill="#ffffff" fill-opacity="1"><g transform="translate(21.507823, 89.440334)"><g><path d="M 8.421875 -4.15625 L 5.59375 -9.828125 L 5.109375 -3.703125 L 4.609375 -3.453125 L -0.5625 -6.765625 L 2.234375 -1.109375 L 1.171875 -0.578125 L -2.6875 -8.390625 L -1.765625 -8.84375 L 4.21875 -4.96875 L 4.703125 -12.03125 L 5.625 -12.484375 L 9.484375 -4.671875 Z M 8.421875 -4.15625 "/></g></g></g><g fill="#ffffff" fill-opacity="1"><g transform="translate(39.669458, 79.468498)"><g><path d="M 4.25 -3.09375 C 3.539062 -2.5625 2.785156 -2.234375 1.984375 -2.109375 C 1.191406 -1.992188 0.429688 -2.082031 -0.296875 -2.375 C -1.035156 -2.675781 -1.660156 -3.160156 -2.171875 -3.828125 C -2.671875 -4.492188 -2.960938 -5.21875 -3.046875 -6 C -3.140625 -6.789062 -3.019531 -7.550781 -2.6875 -8.28125 C -2.363281 -9.019531 -1.847656 -9.65625 -1.140625 -10.1875 C -0.453125 -10.707031 0.285156 -11.023438 1.078125 -11.140625 C 1.878906 -11.265625 2.644531 -11.175781 3.375 -10.875 C 4.101562 -10.582031 4.71875 -10.097656 5.21875 -9.421875 C 5.726562 -8.753906 6.03125 -8.03125 6.125 -7.25 C 6.21875 -6.46875 6.097656 -5.707031 5.765625 -4.96875 C 5.441406 -4.238281 4.9375 -3.613281 4.25 -3.09375 Z M 3.578125 -3.984375 C 4.078125 -4.367188 4.441406 -4.828125 4.671875 -5.359375 C 4.910156 -5.898438 4.992188 -6.460938 4.921875 -7.046875 C 4.847656 -7.628906 4.617188 -8.171875 4.234375 -8.671875 C 3.859375 -9.179688 3.394531 -9.550781 2.84375 -9.78125 C 2.289062 -10.007812 1.722656 -10.082031 1.140625 -10 C 0.566406 -9.925781 0.03125 -9.695312 -0.46875 -9.3125 C -0.988281 -8.925781 -1.367188 -8.460938 -1.609375 -7.921875 C -1.847656 -7.378906 -1.925781 -6.8125 -1.84375 -6.21875 C -1.769531 -5.632812 -1.546875 -5.085938 -1.171875 -4.578125 C -0.785156 -4.078125 -0.320312 -3.710938 0.21875 -3.484375 C 0.769531 -3.265625 1.335938 -3.195312 1.921875 -3.28125 C 2.503906 -3.363281 3.054688 -3.597656 3.578125 -3.984375 Z M 3.578125 -3.984375 "/></g></g></g><g fill="#ffffff" fill-opacity="1"><g transform="translate(54.508064, 67.193957)"><g><path d="M -0.5 -12.375 L 5.9375 -6.5 L 5.25 -5.75 L -3.078125 -6.265625 L 1.71875 -1.875 L 0.890625 -0.96875 L -5.546875 -6.84375 L -4.859375 -7.59375 L 3.453125 -7.078125 L -1.34375 -11.453125 Z M -0.5 -12.375 "/></g></g></g><g fill="#ffffff" fill-opacity="1"><g transform="translate(66.586555, 52.724314)"><g><path d="M -4.78125 -6.703125 L -6.390625 -4.203125 L -7.296875 -4.78125 L -3.375 -10.828125 L -2.46875 -10.25 L -4.109375 -7.734375 L 2.3125 -3.578125 L 1.640625 -2.546875 Z M -4.78125 -6.703125 "/></g></g></g><g fill="#ffffff" fill-opacity="1"><g transform="translate(74.714289, 38.937446)"><g><path d="M -5.734375 -5.890625 L -6.953125 -3.171875 L -7.9375 -3.609375 L -4.984375 -10.1875 L -4 -9.75 L -5.21875 -7.015625 L 1.75 -3.890625 L 1.234375 -2.765625 Z M -5.734375 -5.890625 "/></g></g></g><g fill="#ffffff" fill-opacity="1"><g transform="translate(80.590625, 24.12047)"><g><path d="M -7.984375 -3.71875 L -7.640625 -4.890625 L 0.71875 -2.4375 L 0.375 -1.265625 Z M -7.984375 -3.71875 "/></g></g></g></g></g></svg>