<svg xmlns="http://www.w3.org/2000/svg" xmlns:xlink="http://www.w3.org/1999/xlink" width="1200" zoomAndPan="magnify" viewBox="0 0 900 749.999995" height="1000" preserveAspectRatio="xMidYMid meet" version="1.0"><defs><g/><clipPath id="1d35d1a860"><path d="M 178.964844 103.964844 L 721.035156 103.964844 L 721.035156 646.035156 L 178.964844 646.035156 Z M 178.964844 103.964844 " clip-rule="nonzero"/></clipPath><clipPath id="a4f43a9054"><path d="M 450 103.964844 C 300.3125 103.964844 178.964844 225.3125 178.964844 375 C 178.964844 524.6875 300.3125 646.035156 450 646.035156 C 599.6875 646.035156 721.035156 524.6875 721.035156 375 C 721.035156 225.3125 599.6875 103.964844 450 103.964844 Z M 450 103.964844 " clip-rule="nonzero"/></clipPath><clipPath id="6cf72b5c12"><path d="M 0.964844 0.964844 L 543.035156 0.964844 L 543.035156 543.035156 L 0.964844 543.035156 Z M 0.964844 0.964844 " clip-rule="nonzero"/></clipPath><clipPath id="824b981678"><path d="M 272 0.964844 C 122.3125 0.964844 0.964844 122.3125 0.964844 272 C 0.964844 421.6875 122.3125 543.035156 272 543.035156 C 421.6875 543.035156 543.035156 421.6875 543.035156 272 C 543.035156 122.3125 421.6875 0.964844 272 0.964844 Z M 272 0.964844 " clip-rule="nonzero"/></clipPath><clipPath id="af337010e9"><rect x="0" width="544" y="0" height="544"/></clipPath><clipPath id="b80866156f"><path d="M 178.964844 103.964844 L 721.027344 103.964844 L 721.027344 646.027344 L 178.964844 646.027344 Z M 178.964844 103.964844 " clip-rule="nonzero"/></clipPath><clipPath id="a5d79c4e2f"><path d="M 449.996094 103.964844 C 300.3125 103.964844 178.964844 225.3125 178.964844 374.996094 C 178.964844 524.683594 300.3125 646.027344 449.996094 646.027344 C 599.683594 646.027344 721.027344 524.683594 721.027344 374.996094 C 721.027344 225.3125 599.683594 103.964844 449.996094 103.964844 Z M 449.996094 103.964844 " clip-rule="nonzero"/></clipPath><clipPath id="822b957a2d"><rect x="0" width="222" y="0" height="281"/></clipPath><clipPath id="74e8fc4d33"><rect x="0" width="195" y="0" height="282"/></clipPath><clipPath id="9d5d3d5bb4"><path d="M 227.832031 148.519531 L 671.832031 148.519531 L 671.832031 592.519531 L 227.832031 592.519531 Z M 227.832031 148.519531 " clip-rule="nonzero"/></clipPath><clipPath id="72a7de7b3e"><path d="M 449.996094 148.519531 C 327.296875 148.519531 227.832031 247.984375 227.832031 370.683594 C 227.832031 493.378906 327.296875 592.847656 449.996094 592.847656 C 572.695312 592.847656 672.160156 493.378906 672.160156 370.683594 C 672.160156 247.984375 572.695312 148.519531 449.996094 148.519531 Z M 449.996094 148.519531 " clip-rule="nonzero"/></clipPath><clipPath id="c83b493d2d"><rect x="0" width="256" y="0" height="274"/></clipPath><clipPath id="78496215ec"><rect x="0" width="215" y="0" height="231"/></clipPath></defs><rect x="-90" width="1080" fill="#ffffff" y="-74.999999" height="899.999994" fill-opacity="1"/><rect x="-90" width="1080" fill="#000000" y="-74.999999" height="899.999994" fill-opacity="1"/><g clip-path="url(#1d35d1a860)"><g clip-path="url(#a4f43a9054)"><g transform="matrix(1, 0, 0, 1, 178, 103)"><g clip-path="url(#af337010e9)"><g clip-path="url(#6cf72b5c12)"><g clip-path="url(#824b981678)"><path fill="#000000" d="M 0.964844 0.964844 L 543.035156 0.964844 L 543.035156 543.035156 L 0.964844 543.035156 Z M 0.964844 0.964844 " fill-opacity="1" fill-rule="nonzero"/></g></g></g></g></g></g><g clip-path="url(#b80866156f)"><g clip-path="url(#a5d79c4e2f)"><path stroke-linecap="butt" transform="matrix(0.75, 0, 0, 0.75, 178.96624, 103.966261)" fill="none" stroke-linejoin="miter" d="M 361.373156 -0.00188904 C 161.795021 -0.00188904 -0.00186174 161.794994 -0.00186174 361.373129 C -0.00186174 560.956472 161.795021 722.748146 361.373156 722.748146 C 560.956499 722.748146 722.748173 560.956472 722.748173 361.373129 C 722.748173 161.794994 560.956499 -0.00188904 361.373156 -0.00188904 Z M 361.373156 -0.00188904 " stroke="#000000" stroke-width="4" stroke-opacity="1" stroke-miterlimit="4"/></g></g><g transform="matrix(1, 0, 0, 1, 312, 247)"><g clip-path="url(#822b957a2d)"><g fill="#000000" fill-opacity="1"><g transform="translate(0.850384, 222.319162)"><g><path d="M 194.136719 -161.082031 L 194.136719 4.746094 L 180.039062 4.746094 L 180.039062 -151.1875 L 184.785156 -151.1875 L 188.90625 -148.832031 L 114.132812 -18.035156 L 105.867188 -18.035156 L 31.089844 -148.367188 L 35.207031 -150.726562 L 39.953125 -150.726562 L 39.953125 4.746094 L 25.859375 4.746094 L 25.859375 -165.832031 L 37.273438 -165.832031 L 114.117188 -31.351562 L 109.996094 -28.996094 L 105.875 -31.351562 L 182.722656 -165.832031 L 194.136719 -165.832031 Z M 184.640625 -161.082031 L 189.386719 -161.082031 L 189.386719 -156.335938 L 185.476562 -156.335938 L 185.476562 -161.082031 L 189.597656 -158.730469 L 109.996094 -19.429688 L 30.398438 -158.730469 L 34.519531 -161.082031 L 34.519531 -156.335938 L 30.605469 -156.335938 L 30.605469 -161.082031 L 35.351562 -161.082031 L 35.351562 0 L 30.605469 0 L 30.605469 -4.746094 L 35.207031 -4.746094 L 35.207031 0 L 30.460938 0 L 30.460938 -168.539062 L 112.734375 -25.144531 L 108.617188 -22.78125 L 108.617188 -27.527344 L 111.378906 -27.527344 L 111.378906 -22.78125 L 107.257812 -25.136719 L 189.53125 -169.054688 L 189.53125 0 L 184.785156 0 L 184.785156 -4.746094 L 189.386719 -4.746094 L 189.386719 0 L 184.640625 0 Z M 184.640625 -161.082031 "/></g></g></g><g fill="#ffffff" fill-opacity="1"><g transform="translate(0.850384, 222.319162)"><g><path d="M 189.390625 -161.09375 L 189.390625 0 L 184.796875 0 L 184.796875 -151.1875 L 111.375 -22.78125 L 108.625 -22.78125 L 35.203125 -150.734375 L 35.203125 0 L 30.609375 0 L 30.609375 -161.09375 L 34.515625 -161.09375 L 110 -29 L 185.484375 -161.09375 Z M 189.390625 -161.09375 "/></g></g></g></g></g><g transform="matrix(1, 0, 0, 1, 401, 182)"><g clip-path="url(#74e8fc4d33)"><g fill="#000000" fill-opacity="1"><g transform="translate(0.81181, 222.788008)"><g><path d="M 96.191406 5.4375 C 79.867188 5.4375 65.058594 1.707031 51.757812 -5.753906 C 38.425781 -13.234375 27.9375 -23.519531 20.292969 -36.613281 C 12.652344 -49.703125 8.832031 -64.34375 8.832031 -80.542969 C 8.832031 -96.738281 12.652344 -111.382812 20.292969 -124.472656 C 27.9375 -137.566406 38.425781 -147.851562 51.757812 -155.328125 C 65.058594 -162.789062 79.867188 -166.519531 96.191406 -166.519531 C 112.511719 -166.519531 127.324219 -162.789062 140.625 -155.328125 C 153.953125 -147.851562 164.441406 -137.566406 172.085938 -124.472656 C 179.726562 -111.382812 183.550781 -96.738281 183.550781 -80.542969 C 183.550781 -64.34375 179.726562 -49.703125 172.085938 -36.613281 C 164.441406 -23.519531 153.953125 -13.234375 140.625 -5.753906 C 127.324219 1.707031 112.511719 5.4375 96.191406 5.4375 Z M 96.191406 -4.054688 C 110.859375 -4.054688 124.121094 -7.382812 135.980469 -14.035156 C 147.808594 -20.671875 157.113281 -29.792969 163.886719 -41.398438 C 170.667969 -53.007812 174.058594 -66.058594 174.058594 -80.542969 C 174.058594 -95.027344 170.667969 -108.074219 163.886719 -119.683594 C 157.113281 -131.292969 147.808594 -140.414062 135.980469 -147.050781 C 124.121094 -153.703125 110.859375 -157.027344 96.191406 -157.027344 C 81.523438 -157.027344 68.257812 -153.703125 56.398438 -147.050781 C 44.570312 -140.414062 35.269531 -131.292969 28.492188 -119.683594 C 21.710938 -108.074219 18.324219 -95.027344 18.324219 -80.542969 C 18.324219 -66.058594 21.710938 -53.007812 28.492188 -41.398438 C 35.269531 -29.792969 44.570312 -20.671875 56.398438 -14.035156 C 68.257812 -7.382812 81.523438 -4.054688 96.191406 -4.054688 Z M 96.191406 -8.429688 C 109.9375 -8.429688 122.394531 -11.5625 133.5625 -17.832031 C 144.699219 -24.082031 153.464844 -32.703125 159.859375 -43.691406 C 166.253906 -54.691406 169.453125 -66.972656 169.453125 -80.542969 C 169.453125 -94.109375 166.253906 -106.390625 159.859375 -117.390625 C 153.464844 -128.382812 144.699219 -137 133.5625 -143.253906 C 122.394531 -149.519531 109.9375 -152.65625 96.191406 -152.65625 C 82.441406 -152.65625 69.984375 -149.519531 58.816406 -143.253906 C 47.679688 -137 38.914062 -128.382812 32.523438 -117.390625 C 26.125 -106.390625 22.925781 -94.109375 22.925781 -80.542969 C 22.925781 -66.972656 26.125 -54.691406 32.523438 -43.691406 C 38.914062 -32.703125 47.679688 -24.082031 58.816406 -17.832031 C 69.984375 -11.5625 82.441406 -8.429688 96.191406 -8.429688 Z M 96.191406 1.0625 C 80.789062 1.0625 66.78125 -2.476562 54.171875 -9.554688 C 41.527344 -16.648438 31.578125 -26.4375 24.316406 -38.921875 C 17.0625 -51.394531 13.433594 -65.269531 13.433594 -80.542969 C 13.433594 -95.816406 17.0625 -109.691406 24.316406 -122.164062 C 31.578125 -134.644531 41.527344 -144.433594 54.171875 -151.53125 C 66.78125 -158.609375 80.789062 -162.148438 96.191406 -162.148438 C 111.589844 -162.148438 125.597656 -158.609375 138.207031 -151.53125 C 150.851562 -144.433594 160.800781 -134.644531 168.0625 -122.164062 C 175.320312 -109.691406 178.945312 -95.816406 178.945312 -80.542969 C 178.945312 -65.269531 175.320312 -51.394531 168.0625 -38.921875 C 160.800781 -26.4375 150.851562 -16.648438 138.207031 -9.554688 C 125.597656 -2.476562 111.589844 1.0625 96.191406 1.0625 Z M 96.191406 1.0625 "/></g></g></g><g fill="#ffffff" fill-opacity="1"><g transform="translate(0.81181, 222.788008)"><g><path d="M 96.1875 0.6875 C 80.695312 0.6875 66.660156 -2.835938 54.078125 -9.890625 C 41.492188 -16.953125 31.597656 -26.65625 24.390625 -39 C 17.179688 -51.351562 13.578125 -65.203125 13.578125 -80.546875 C 13.578125 -95.890625 17.179688 -109.734375 24.390625 -122.078125 C 31.597656 -134.429688 41.492188 -144.132812 54.078125 -151.1875 C 66.660156 -158.25 80.695312 -161.78125 96.1875 -161.78125 C 111.6875 -161.78125 125.722656 -158.25 138.296875 -151.1875 C 150.878906 -144.132812 160.773438 -134.429688 167.984375 -122.078125 C 175.203125 -109.734375 178.8125 -95.890625 178.8125 -80.546875 C 178.8125 -65.203125 175.203125 -51.351562 167.984375 -39 C 160.773438 -26.65625 150.878906 -16.953125 138.296875 -9.890625 C 125.722656 -2.835938 111.6875 0.6875 96.1875 0.6875 Z M 96.1875 -3.6875 C 110.757812 -3.6875 123.988281 -7.019531 135.875 -13.6875 C 147.769531 -20.363281 157.128906 -29.566406 163.953125 -41.296875 C 170.785156 -53.035156 174.203125 -66.117188 174.203125 -80.546875 C 174.203125 -94.960938 170.785156 -108.039062 163.953125 -119.78125 C 157.128906 -131.519531 147.769531 -140.722656 135.875 -147.390625 C 123.988281 -154.066406 110.757812 -157.40625 96.1875 -157.40625 C 81.613281 -157.40625 68.378906 -154.066406 56.484375 -147.390625 C 44.597656 -140.722656 35.242188 -131.519531 28.421875 -119.78125 C 21.597656 -108.039062 18.1875 -94.960938 18.1875 -80.546875 C 18.1875 -66.117188 21.597656 -53.035156 28.421875 -41.296875 C 35.242188 -29.566406 44.597656 -20.363281 56.484375 -13.6875 C 68.378906 -7.019531 81.613281 -3.6875 96.1875 -3.6875 Z M 96.1875 -3.6875 "/></g></g></g></g></g><g clip-path="url(#9d5d3d5bb4)"><g clip-path="url(#72a7de7b3e)"><path stroke-linecap="butt" transform="matrix(0.75, 0, 0, 0.75, 227.832033, 148.517811)" fill="none" stroke-linejoin="miter" d="M 296.218762 0.00229345 C 132.619796 0.00229345 -0.00000216931 132.622092 -0.00000216931 296.221058 C -0.00000216931 459.814816 132.619796 592.439822 296.218762 592.439822 C 459.817729 592.439822 592.437527 459.814816 592.437527 296.221058 C 592.437527 132.622092 459.817729 0.00229345 296.218762 0.00229345 Z M 296.218762 0.00229345 " stroke="#ffffff" stroke-width="6" stroke-opacity="1" stroke-miterlimit="4"/></g></g><g transform="matrix(1, 0, 0, 1, 169, 111)"><g clip-path="url(#c83b493d2d)"><path fill="#000000" d="M 49.828125 253.519531 C 49 253.457031 48.1875 253.316406 47.382812 253.097656 C 46.582031 252.875 45.808594 252.582031 45.0625 252.214844 C 44.320312 251.84375 43.617188 251.40625 42.957031 250.902344 C 42.296875 250.398438 41.691406 249.832031 41.140625 249.210938 C 40.589844 248.589844 40.101562 247.917969 39.683594 247.203125 C 39.261719 246.484375 38.910156 245.734375 38.636719 244.953125 C 38.359375 244.167969 38.160156 243.363281 38.039062 242.542969 C 37.917969 241.71875 37.878906 240.894531 37.917969 240.0625 C 38.226562 237.03125 38.59375 234.007812 39.019531 230.988281 C 39.449219 227.972656 39.933594 224.964844 40.476562 221.964844 C 41.019531 218.964844 41.621094 215.980469 42.28125 213.003906 C 42.941406 210.027344 43.660156 207.066406 44.433594 204.121094 C 45.207031 201.171875 46.039062 198.242188 46.929688 195.324219 C 47.816406 192.410156 48.761719 189.511719 49.761719 186.632812 C 50.761719 183.757812 51.816406 180.898438 52.929688 178.058594 C 54.042969 175.222656 55.207031 172.40625 56.429688 169.613281 C 57.648438 166.824219 58.921875 164.054688 60.25 161.3125 C 61.582031 158.570312 62.960938 155.851562 64.394531 153.164062 C 65.828125 150.472656 67.3125 147.8125 68.851562 145.183594 C 70.386719 142.550781 71.976562 139.949219 73.613281 137.378906 C 75.25 134.808594 76.9375 132.273438 78.671875 129.765625 C 80.410156 127.261719 82.195312 124.792969 84.027344 122.355469 C 85.859375 119.921875 87.738281 117.523438 89.660156 115.160156 C 91.585938 112.796875 93.558594 110.472656 95.574219 108.1875 C 97.589844 105.902344 99.648438 103.65625 101.75 101.449219 C 103.851562 99.242188 105.996094 97.078125 108.183594 94.953125 C 110.371094 92.832031 112.597656 90.75 114.863281 88.714844 C 117.132812 86.679688 119.4375 84.6875 121.78125 82.738281 C 124.125 80.792969 126.507812 78.890625 128.925781 77.035156 C 131.34375 75.183594 133.796875 73.375 136.285156 71.617188 C 138.773438 69.855469 141.296875 68.144531 143.851562 66.484375 C 146.40625 64.824219 148.992188 63.210938 151.609375 61.648438 C 154.226562 60.089844 156.871094 58.578125 159.546875 57.121094 C 162.222656 55.660156 164.925781 54.253906 167.65625 52.902344 C 170.386719 51.546875 173.144531 50.246094 175.925781 49 C 178.707031 47.753906 181.511719 46.5625 184.335938 45.421875 C 187.164062 44.285156 190.011719 43.203125 192.882812 42.175781 C 195.75 41.148438 198.640625 40.175781 201.546875 39.261719 C 204.453125 38.347656 207.375 37.488281 210.316406 36.683594 C 213.257812 35.882812 216.210938 35.140625 219.179688 34.453125 C 220 34.308594 220.824219 34.246094 221.65625 34.261719 C 222.488281 34.28125 223.308594 34.375 224.121094 34.550781 C 224.933594 34.726562 225.722656 34.980469 226.484375 35.308594 C 227.25 35.636719 227.972656 36.035156 228.660156 36.503906 C 229.347656 36.972656 229.980469 37.503906 230.566406 38.09375 C 231.148438 38.683594 231.671875 39.328125 232.128906 40.019531 C 232.589844 40.710938 232.980469 41.441406 233.296875 42.210938 C 233.617188 42.976562 233.859375 43.769531 234.023438 44.585938 L 238.453125 69.972656 C 238.632812 70.816406 238.722656 71.671875 238.730469 72.539062 C 238.738281 73.402344 238.65625 74.261719 238.488281 75.109375 C 238.324219 75.957031 238.074219 76.78125 237.742188 77.582031 C 237.410156 78.378906 237 79.136719 236.515625 79.851562 C 236.03125 80.570312 235.480469 81.230469 234.863281 81.835938 C 234.246094 82.441406 233.570312 82.976562 232.847656 83.449219 C 232.121094 83.917969 231.355469 84.308594 230.550781 84.625 C 229.742188 84.941406 228.914062 85.175781 228.0625 85.324219 C 223.554688 86.441406 219.09375 87.726562 214.679688 89.179688 C 210.265625 90.636719 205.917969 92.253906 201.625 94.039062 C 197.335938 95.824219 193.121094 97.765625 188.976562 99.871094 C 184.835938 101.972656 180.777344 104.230469 176.804688 106.640625 C 172.835938 109.050781 168.960938 111.609375 165.179688 114.3125 C 161.402344 117.019531 157.734375 119.859375 154.171875 122.84375 C 150.609375 125.824219 147.164062 128.9375 143.835938 132.179688 C 140.507812 135.421875 137.308594 138.785156 134.234375 142.273438 C 131.164062 145.757812 128.226562 149.351562 125.425781 153.058594 C 122.628906 156.769531 119.972656 160.574219 117.460938 164.484375 C 114.949219 168.394531 112.585938 172.390625 110.378906 176.476562 C 108.167969 180.566406 106.117188 184.730469 104.222656 188.972656 C 102.332031 193.214844 100.601562 197.523438 99.03125 201.898438 C 97.464844 206.269531 96.066406 210.699219 94.832031 215.175781 C 93.601562 219.65625 92.539062 224.175781 91.648438 228.738281 C 90.757812 233.296875 90.042969 237.882812 89.5 242.5 C 89.460938 243.363281 89.332031 244.214844 89.121094 245.050781 C 88.90625 245.890625 88.613281 246.699219 88.238281 247.480469 C 87.863281 248.257812 87.414062 248.992188 86.890625 249.679688 C 86.367188 250.371094 85.78125 251 85.132812 251.570312 C 84.484375 252.140625 83.78125 252.640625 83.03125 253.070312 C 82.28125 253.5 81.496094 253.851562 80.675781 254.125 C 79.851562 254.394531 79.011719 254.582031 78.152344 254.683594 C 77.296875 254.785156 76.433594 254.800781 75.574219 254.730469 Z M 49.828125 253.519531 " fill-opacity="1" fill-rule="nonzero"/><g fill="#ffffff" fill-opacity="1"><g transform="translate(71.994099, 235.294093)"><g><path d="M -14.4375 -8.96875 L -15.53125 -2.890625 L -17.734375 -3.28125 L -15.109375 -17.953125 L -12.90625 -17.5625 L -13.984375 -11.484375 L 1.5625 -8.703125 L 1.109375 -6.1875 Z M -14.4375 -8.96875 "/></g></g></g><g fill="#ffffff" fill-opacity="1"><g transform="translate(78.742186, 205.050853)"><g><path d="M -16.328125 -8.125 L -15.53125 -10.578125 L 1.625 -5.03125 L 0.828125 -2.578125 Z M -16.328125 -8.125 "/></g></g></g><g fill="#ffffff" fill-opacity="1"><g transform="translate(86.819561, 182.618495)"><g><path d="M 4.90625 -15.1875 L 6.921875 -14.203125 L 1.1875 -2.4375 L -15.03125 -10.328125 L -9.453125 -21.765625 L -7.4375 -20.796875 L -11.890625 -11.671875 L -6.90625 -9.234375 L -2.953125 -17.359375 L -0.984375 -16.40625 L -4.9375 -8.28125 L 0.296875 -5.734375 Z M 4.90625 -15.1875 "/></g></g></g><g fill="#ffffff" fill-opacity="1"><g transform="translate(102.269859, 153.58882)"><g><path d="M -3.96875 -25.328125 L 10.65625 -14.78125 L 9.421875 -13.0625 L -7.8125 -12.140625 L 3.09375 -4.28125 L 1.578125 -2.1875 L -13.046875 -12.734375 L -11.8125 -14.453125 L 5.40625 -15.375 L -5.484375 -23.234375 Z M -3.96875 -25.328125 "/></g></g></g><g fill="#ffffff" fill-opacity="1"><g transform="translate(124.703584, 124.840064)"><g><path d="M -10.546875 -14.875 L -5.0625 -20.140625 C -3.6875 -21.460938 -2.203125 -22.363281 -0.609375 -22.84375 C 0.972656 -23.320312 2.53125 -23.351562 4.0625 -22.9375 C 5.59375 -22.519531 6.972656 -21.671875 8.203125 -20.390625 C 9.429688 -19.109375 10.222656 -17.691406 10.578125 -16.140625 C 10.941406 -14.597656 10.851562 -13.039062 10.3125 -11.46875 C 9.769531 -9.90625 8.8125 -8.460938 7.4375 -7.140625 L 1.953125 -1.875 Z M 5.78125 -8.640625 C 6.832031 -9.648438 7.554688 -10.742188 7.953125 -11.921875 C 8.359375 -13.109375 8.421875 -14.28125 8.140625 -15.4375 C 7.867188 -16.59375 7.269531 -17.648438 6.34375 -18.609375 C 5.414062 -19.578125 4.378906 -20.21875 3.234375 -20.53125 C 2.097656 -20.851562 0.9375 -20.832031 -0.25 -20.46875 C -1.4375 -20.113281 -2.554688 -19.429688 -3.609375 -18.421875 L -7.125 -15.046875 L 2.265625 -5.265625 Z M 5.78125 -8.640625 "/></g></g></g><g fill="#ffffff" fill-opacity="1"><g transform="translate(152.533984, 100.430914)"><g><path d="M -8.203125 -16.28125 L -6.09375 -17.765625 L 4.3125 -3.046875 L 2.203125 -1.5625 Z M -8.203125 -16.28125 "/></g></g></g><g fill="#ffffff" fill-opacity="1"><g transform="translate(172.498154, 87.337597)"><g><path d="M -1.71875 -16.921875 L -7.203125 -14.0625 L -8.234375 -16.046875 L 4.984375 -22.9375 L 6.015625 -20.953125 L 0.546875 -18.09375 L 7.84375 -4.078125 L 5.578125 -2.90625 Z M -1.71875 -16.921875 "/></g></g></g><g fill="#ffffff" fill-opacity="1"><g transform="translate(200.33248, 74.110737)"><g><path d="M 12.078125 -8.734375 L 2.96875 -5.71875 L 2.5 -0.828125 L -0.03125 0.015625 L 2.09375 -19.671875 L 4.515625 -20.46875 L 17.9375 -5.921875 L 15.375 -5.0625 Z M 10.5625 -10.390625 L 4.109375 -17.578125 L 3.171875 -7.96875 Z M 10.5625 -10.390625 "/></g></g></g></g></g><g transform="matrix(1, 0, 0, 1, 497, 396)"><g clip-path="url(#78496215ec)"><path fill="#000000" d="M 178 22.648438 C 178.816406 22.808594 179.605469 23.046875 180.378906 23.359375 C 181.148438 23.671875 181.878906 24.054688 182.574219 24.511719 C 183.269531 24.964844 183.917969 25.484375 184.511719 26.0625 C 185.109375 26.644531 185.640625 27.273438 186.113281 27.957031 C 186.589844 28.640625 186.992188 29.363281 187.324219 30.125 C 187.660156 30.886719 187.914062 31.671875 188.097656 32.484375 C 188.277344 33.296875 188.378906 34.117188 188.402344 34.949219 C 188.425781 35.777344 188.367188 36.601562 188.230469 37.421875 C 187.167969 42.15625 185.960938 46.855469 184.605469 51.515625 C 183.253906 56.175781 181.757812 60.789062 180.121094 65.359375 C 178.480469 69.925781 176.703125 74.4375 174.785156 78.894531 C 172.871094 83.355469 170.816406 87.75 168.628906 92.078125 C 166.441406 96.410156 164.121094 100.667969 161.667969 104.859375 C 159.21875 109.046875 156.640625 113.152344 153.933594 117.183594 C 151.226562 121.210938 148.402344 125.152344 145.453125 129.003906 C 142.503906 132.859375 139.4375 136.617188 136.257812 140.28125 C 133.074219 143.945312 129.785156 147.507812 126.382812 150.96875 C 122.980469 154.429688 119.476562 157.785156 115.867188 161.027344 C 112.257812 164.273438 108.554688 167.402344 104.753906 170.417969 C 100.949219 173.433594 97.058594 176.328125 93.078125 179.105469 C 89.097656 181.878906 85.035156 184.53125 80.890625 187.054688 C 76.746094 189.578125 72.527344 191.972656 68.234375 194.234375 C 63.945312 196.5 59.585938 198.628906 55.160156 200.621094 C 50.738281 202.617188 46.257812 204.472656 41.71875 206.1875 C 40.925781 206.441406 40.117188 206.613281 39.289062 206.707031 C 38.464844 206.800781 37.636719 206.816406 36.808594 206.75 C 35.980469 206.683594 35.164062 206.542969 34.363281 206.316406 C 33.566406 206.09375 32.792969 205.796875 32.050781 205.425781 C 31.304688 205.050781 30.605469 204.613281 29.949219 204.105469 C 29.289062 203.59375 28.6875 203.027344 28.140625 202.402344 C 27.589844 201.78125 27.109375 201.109375 26.691406 200.390625 C 26.269531 199.671875 25.925781 198.917969 25.652344 198.132812 L 17.863281 173.570312 C 17.574219 172.753906 17.367188 171.917969 17.246094 171.0625 C 17.125 170.207031 17.089844 169.34375 17.140625 168.480469 C 17.191406 167.617188 17.328125 166.769531 17.550781 165.933594 C 17.773438 165.097656 18.078125 164.292969 18.460938 163.515625 C 18.84375 162.742188 19.304688 162.015625 19.835938 161.332031 C 20.367188 160.648438 20.960938 160.027344 21.617188 159.464844 C 22.273438 158.898438 22.980469 158.410156 23.734375 157.988281 C 24.492188 157.566406 25.28125 157.226562 26.105469 156.964844 C 29.519531 155.613281 32.894531 154.160156 36.222656 152.605469 C 39.550781 151.050781 42.828125 149.398438 46.058594 147.644531 C 49.289062 145.894531 52.460938 144.050781 55.582031 142.109375 C 58.699219 140.167969 61.757812 138.136719 64.753906 136.011719 C 67.753906 133.886719 70.683594 131.675781 73.550781 129.378906 C 76.414062 127.078125 79.207031 124.695312 81.929688 122.230469 C 84.652344 119.761719 87.296875 117.214844 89.867188 114.589844 C 92.4375 111.964844 94.925781 109.265625 97.335938 106.492188 C 99.742188 103.71875 102.066406 100.875 104.304688 97.960938 C 106.542969 95.050781 108.691406 92.070312 110.75 89.03125 C 112.808594 85.988281 114.777344 82.886719 116.652344 79.726562 C 118.527344 76.570312 120.304688 73.355469 121.984375 70.089844 C 123.667969 66.824219 125.25 63.511719 126.734375 60.148438 C 128.214844 56.789062 129.597656 53.386719 130.878906 49.945312 C 132.15625 46.5 133.332031 43.023438 134.40625 39.507812 C 135.476562 35.996094 136.441406 32.453125 137.300781 28.878906 C 137.445312 28.027344 137.671875 27.195312 137.980469 26.390625 C 138.292969 25.582031 138.679688 24.8125 139.144531 24.085938 C 139.609375 23.355469 140.140625 22.679688 140.742188 22.058594 C 141.34375 21.4375 142 20.878906 142.714844 20.390625 C 143.429688 19.902344 144.183594 19.488281 144.980469 19.148438 C 145.773438 18.8125 146.597656 18.558594 147.445312 18.386719 C 148.292969 18.214844 149.148438 18.128906 150.015625 18.128906 C 150.878906 18.128906 151.734375 18.214844 152.582031 18.386719 Z M 178 22.648438 " fill-opacity="1" fill-rule="nonzero"/><g fill="#ffffff" fill-opacity="1"><g transform="translate(43.990534, 185.644946)"><g><path d="M 17.421875 -8.59375 L 11.59375 -20.359375 L 10.59375 -7.671875 L 9.53125 -7.140625 L -1.140625 -14 L 4.640625 -2.28125 L 2.421875 -1.203125 L -5.546875 -17.375 L -3.65625 -18.296875 L 8.703125 -10.265625 L 9.765625 -24.921875 L 11.65625 -25.84375 L 19.640625 -9.6875 Z M 17.421875 -8.59375 "/></g></g></g><g fill="#ffffff" fill-opacity="1"><g transform="translate(81.542535, 165.026668)"><g><path d="M 8.765625 -6.390625 C 7.316406 -5.296875 5.765625 -4.625 4.109375 -4.375 C 2.460938 -4.125 0.882812 -4.3125 -0.625 -4.9375 C -2.132812 -5.5625 -3.414062 -6.5625 -4.46875 -7.9375 C -5.507812 -9.320312 -6.125 -10.820312 -6.3125 -12.4375 C -6.507812 -14.0625 -6.265625 -15.632812 -5.578125 -17.15625 C -4.890625 -18.675781 -3.820312 -19.984375 -2.375 -21.078125 C -0.9375 -22.171875 0.601562 -22.84375 2.25 -23.09375 C 3.894531 -23.34375 5.46875 -23.15625 6.96875 -22.53125 C 8.476562 -21.914062 9.757812 -20.910156 10.8125 -19.515625 C 11.875 -18.117188 12.5 -16.613281 12.6875 -15 C 12.875 -13.394531 12.625 -11.832031 11.9375 -10.3125 C 11.257812 -8.789062 10.203125 -7.484375 8.765625 -6.390625 Z M 7.375 -8.21875 C 8.425781 -9.019531 9.191406 -9.976562 9.671875 -11.09375 C 10.160156 -12.207031 10.328125 -13.367188 10.171875 -14.578125 C 10.015625 -15.785156 9.539062 -16.910156 8.75 -17.953125 C 7.96875 -18.984375 7.015625 -19.738281 5.890625 -20.21875 C 4.765625 -20.695312 3.597656 -20.859375 2.390625 -20.703125 C 1.179688 -20.546875 0.0507812 -20.066406 -1 -19.265625 C -2.050781 -18.472656 -2.820312 -17.507812 -3.3125 -16.375 C -3.800781 -15.238281 -3.96875 -14.0625 -3.8125 -12.84375 C -3.664062 -11.632812 -3.203125 -10.515625 -2.421875 -9.484375 C -1.628906 -8.441406 -0.671875 -7.679688 0.453125 -7.203125 C 1.585938 -6.734375 2.757812 -6.585938 3.96875 -6.765625 C 5.1875 -6.941406 6.320312 -7.425781 7.375 -8.21875 Z M 7.375 -8.21875 "/></g></g></g><g fill="#ffffff" fill-opacity="1"><g transform="translate(112.223685, 139.647135)"><g><path d="M -1.03125 -25.609375 L 12.28125 -13.453125 L 10.859375 -11.890625 L -6.375 -12.984375 L 3.5625 -3.90625 L 1.828125 -2 L -11.484375 -14.15625 L -10.0625 -15.703125 L 7.15625 -14.640625 L -2.765625 -23.703125 Z M -1.03125 -25.609375 "/></g></g></g><g fill="#ffffff" fill-opacity="1"><g transform="translate(137.197728, 109.728895)"><g><path d="M -9.859375 -13.859375 L -13.203125 -8.671875 L -15.078125 -9.890625 L -6.984375 -22.40625 L -5.109375 -21.1875 L -8.46875 -16 L 4.796875 -7.421875 L 3.40625 -5.28125 Z M -9.859375 -13.859375 "/></g></g></g><g fill="#ffffff" fill-opacity="1"><g transform="translate(154.003093, 81.222415)"><g><path d="M -11.828125 -12.203125 L -14.359375 -6.5625 L -16.40625 -7.46875 L -10.3125 -21.078125 L -8.265625 -20.171875 L -10.78125 -14.53125 L 3.625 -8.0625 L 2.578125 -5.734375 Z M -11.828125 -12.203125 "/></g></g></g><g fill="#ffffff" fill-opacity="1"><g transform="translate(166.153366, 50.586016)"><g><path d="M -16.53125 -7.6875 L -15.8125 -10.15625 L 1.484375 -5.0625 L 0.765625 -2.59375 Z M -16.53125 -7.6875 "/></g></g></g></g></g></svg>