<svg xmlns="http://www.w3.org/2000/svg" xmlns:xlink="http://www.w3.org/1999/xlink" width="500" zoomAndPan="magnify" viewBox="0 0 375 374.999991" height="500" preserveAspectRatio="xMidYMid meet" version="1.0"><defs><g/><clipPath id="81e8243089"><path d="M 188.582031 -2.160156 C 84.429688 -2.160156 0 82.269531 0 186.417969 C 0 290.570312 84.429688 375 188.582031 375 C 292.730469 375 377.160156 290.570312 377.160156 186.417969 C 377.160156 82.269531 292.730469 -2.160156 188.582031 -2.160156 Z M 188.582031 -2.160156 " clip-rule="nonzero"/></clipPath><clipPath id="965deea432"><path d="M 0 0 L 375 0 L 375 375 L 0 375 Z M 0 0 " clip-rule="nonzero"/></clipPath><clipPath id="5f90211809"><path d="M 188.582031 -2.160156 C 84.429688 -2.160156 0 82.269531 0 186.417969 C 0 290.570312 84.429688 375 188.582031 375 C 292.730469 375 377.160156 290.570312 377.160156 186.417969 C 377.160156 82.269531 292.730469 -2.160156 188.582031 -2.160156 Z M 188.582031 -2.160156 " clip-rule="nonzero"/></clipPath><clipPath id="544c159489"><rect x="0" width="375" y="0" height="375"/></clipPath><clipPath id="c2bc6c5306"><path d="M 0 0 L 375 0 L 375 374.996094 L 0 374.996094 Z M 0 0 " clip-rule="nonzero"/></clipPath><clipPath id="4d6b4f9599"><path d="M 188.578125 -2.160156 C 84.429688 -2.160156 0 82.269531 0 186.417969 C 0 290.566406 84.429688 374.996094 188.578125 374.996094 C 292.726562 374.996094 377.15625 290.566406 377.15625 186.417969 C 377.15625 82.269531 292.726562 -2.160156 188.578125 -2.160156 Z M 188.578125 -2.160156 " clip-rule="nonzero"/></clipPath><clipPath id="782f4dc6a3"><path d="M 25.984375 24.902344 L 351.167969 24.902344 L 351.167969 350.085938 L 25.984375 350.085938 Z M 25.984375 24.902344 " clip-rule="nonzero"/></clipPath><clipPath id="6d7020af01"><path d="M 188.574219 24.902344 C 98.777344 24.902344 25.984375 97.699219 25.984375 187.496094 C 25.984375 277.292969 98.777344 350.085938 188.574219 350.085938 C 278.371094 350.085938 351.167969 277.292969 351.167969 187.496094 C 351.167969 97.699219 278.371094 24.902344 188.574219 24.902344 Z M 188.574219 24.902344 " clip-rule="nonzero"/></clipPath><clipPath id="0bdf1ef0a7"><rect x="0" width="198" y="0" height="251"/></clipPath><clipPath id="7ad2b09e86"><rect x="0" width="156" y="0" height="225"/></clipPath></defs><g clip-path="url(#81e8243089)"><g transform="matrix(1, 0, 0, 1, 0, 0)"><g clip-path="url(#544c159489)"><g clip-path="url(#965deea432)"><g clip-path="url(#5f90211809)"><rect x="-82.5" width="540" fill="#000000" height="539.999987" y="-82.499998" fill-opacity="1"/></g></g></g></g></g><g clip-path="url(#c2bc6c5306)"><g clip-path="url(#4d6b4f9599)"><path stroke-linecap="butt" transform="matrix(0.75, 0, 0, 0.75, 0.0000045, -2.161213)" fill="none" stroke-linejoin="miter" d="M 251.437511 0.0014086 C 112.572918 0.0014086 -0.000006 112.574333 -0.000006 251.438925 C -0.000006 390.303518 112.572918 502.876442 251.437511 502.876442 C 390.302103 502.876442 502.875027 390.303518 502.875027 251.438925 C 502.875027 112.574333 390.302103 0.0014086 251.437511 0.0014086 Z M 251.437511 0.0014086 " stroke="#000000" stroke-width="4" stroke-opacity="1" stroke-miterlimit="4"/></g></g><g clip-path="url(#782f4dc6a3)"><g clip-path="url(#6d7020af01)"><path stroke-linecap="butt" transform="matrix(0.75, 0, 0, 0.75, 25.984234, 24.90362)" fill="none" stroke-linejoin="miter" d="M 216.78666 -0.00170194 C 97.057485 -0.00170194 0.000187368 97.060804 0.000187368 216.789979 C 0.000187368 336.519153 97.057485 433.576452 216.78666 433.576452 C 336.515834 433.576452 433.578341 336.519153 433.578341 216.789979 C 433.578341 97.060804 336.515834 -0.00170194 216.78666 -0.00170194 Z M 216.78666 -0.00170194 " stroke="#ffffff" stroke-width="6" stroke-opacity="1" stroke-miterlimit="4"/></g></g><g transform="matrix(1, 0, 0, 1, 77, 89)"><g clip-path="url(#0bdf1ef0a7)"><g fill="#000000" fill-opacity="1"><g transform="translate(0.64279, 197.784676)"><g><path d="M 143.539062 0.0117188 L 143.332031 -86.191406 L 147.566406 -86.199219 L 151.203125 -84.035156 L 107.695312 -10.953125 L 87.925781 -10.953125 L 44.613281 -82.152344 L 48.230469 -84.351562 L 52.464844 -84.351562 L 52.464844 4.234375 L 12.800781 4.234375 L 12.800781 -147.898438 L 46.929688 -147.898438 L 101.933594 -56.570312 L 98.308594 -54.386719 L 94.667969 -56.546875 L 148.847656 -147.898438 L 182.777344 -147.898438 L 183.214844 4.234375 L 143.546875 4.234375 Z M 152.003906 -0.0117188 L 147.769531 0 L 147.769531 -4.234375 L 178.96875 -4.234375 L 178.96875 0 L 174.734375 0.0117188 L 174.324219 -143.65625 L 178.558594 -143.667969 L 178.558594 -139.433594 L 151.261719 -139.433594 L 151.261719 -143.667969 L 154.902344 -141.507812 L 98.335938 -46.136719 L 40.910156 -141.484375 L 44.535156 -143.667969 L 44.535156 -139.433594 L 17.035156 -139.433594 L 17.035156 -143.667969 L 21.269531 -143.667969 L 21.269531 0 L 17.035156 0 L 17.035156 -4.234375 L 48.230469 -4.234375 L 48.230469 0 L 43.996094 0 L 43.996094 -99.457031 L 93.921875 -17.386719 L 90.304688 -15.1875 L 90.304688 -19.421875 L 105.289062 -19.421875 L 105.289062 -15.1875 L 101.648438 -17.351562 L 151.761719 -101.523438 Z M 152.003906 -0.0117188 "/></g></g></g><g fill="#ffffff" fill-opacity="1"><g transform="translate(0.64279, 197.784676)"><g><path d="M 147.765625 0 L 147.5625 -86.203125 L 105.28125 -15.1875 L 90.296875 -15.1875 L 48.234375 -84.34375 L 48.234375 0 L 17.03125 0 L 17.03125 -143.65625 L 44.53125 -143.65625 L 98.3125 -54.390625 L 151.25 -143.65625 L 178.546875 -143.65625 L 178.96875 0 Z M 147.765625 0 "/></g></g></g></g></g><g transform="matrix(1, 0, 0, 1, 166, 35)"><g clip-path="url(#7ad2b09e86)"><g fill="#000000" fill-opacity="1"><g transform="translate(0.263158, 177.945935)"><g><path d="M 77.445312 5.988281 C 63.476562 5.988281 50.859375 2.960938 39.59375 -3.089844 C 28.273438 -9.167969 19.410156 -17.550781 12.996094 -28.242188 C 6.578125 -38.933594 3.371094 -50.933594 3.371094 -64.234375 C 3.371094 -77.535156 6.578125 -89.53125 12.996094 -100.222656 C 19.410156 -110.914062 28.273438 -119.296875 39.59375 -125.375 C 50.859375 -131.425781 63.476562 -134.453125 77.445312 -134.453125 C 91.421875 -134.453125 104.011719 -131.425781 115.214844 -125.371094 C 126.464844 -119.296875 135.324219 -110.917969 141.796875 -100.238281 C 148.277344 -89.542969 151.519531 -77.539062 151.519531 -64.234375 C 151.519531 -50.925781 148.277344 -38.925781 141.796875 -28.226562 C 135.324219 -17.546875 126.464844 -9.167969 115.214844 -3.09375 C 104.011719 2.960938 91.421875 5.988281 77.445312 5.988281 Z M 77.445312 -1.582031 C 90.144531 -1.582031 101.535156 -4.304688 111.617188 -9.753906 C 121.660156 -15.179688 129.558594 -22.644531 135.320312 -32.152344 C 141.074219 -41.640625 143.949219 -52.335938 143.949219 -64.234375 C 143.949219 -76.128906 141.074219 -86.824219 135.320312 -96.3125 C 129.558594 -105.820312 121.660156 -113.289062 111.617188 -118.710938 C 101.535156 -124.160156 90.144531 -126.882812 77.445312 -126.882812 C 64.746094 -126.882812 53.320312 -124.15625 43.175781 -118.707031 C 33.082031 -113.285156 25.1875 -105.828125 19.488281 -96.328125 C 13.789062 -86.835938 10.941406 -76.136719 10.941406 -64.234375 C 10.941406 -52.328125 13.789062 -41.632812 19.488281 -32.136719 C 25.1875 -22.640625 33.082031 -15.179688 43.175781 -9.757812 C 53.320312 -4.308594 64.746094 -1.582031 77.445312 -1.582031 Z M 77.445312 -26.910156 C 84.363281 -26.910156 90.589844 -28.488281 96.125 -31.644531 C 101.632812 -34.78125 105.957031 -39.164062 109.101562 -44.789062 C 112.269531 -50.457031 113.851562 -56.9375 113.851562 -64.234375 C 113.851562 -71.527344 112.269531 -78.007812 109.101562 -83.675781 C 105.957031 -89.300781 101.632812 -93.683594 96.125 -96.824219 C 90.589844 -99.976562 84.363281 -101.554688 77.445312 -101.554688 C 70.53125 -101.554688 64.300781 -99.976562 58.765625 -96.824219 C 53.257812 -93.683594 48.933594 -89.300781 45.789062 -83.675781 C 42.625 -78.007812 41.039062 -71.527344 41.039062 -64.234375 C 41.039062 -56.9375 42.625 -50.457031 45.789062 -44.789062 C 48.933594 -39.164062 53.257812 -34.78125 58.765625 -31.644531 C 64.300781 -28.488281 70.53125 -26.910156 77.445312 -26.910156 Z M 77.445312 -19.339844 C 69.191406 -19.339844 61.714844 -21.246094 55.015625 -25.066406 C 48.289062 -28.902344 43.011719 -34.246094 39.179688 -41.097656 C 35.375 -47.910156 33.46875 -55.621094 33.46875 -64.234375 C 33.46875 -72.84375 35.375 -80.554688 39.179688 -87.367188 C 43.011719 -94.222656 48.289062 -99.566406 55.015625 -103.398438 C 61.714844 -107.21875 69.191406 -109.125 77.445312 -109.125 C 85.699219 -109.125 93.175781 -107.21875 99.875 -103.398438 C 106.601562 -99.566406 111.882812 -94.222656 115.710938 -87.367188 C 119.519531 -80.554688 121.421875 -72.84375 121.421875 -64.234375 C 121.421875 -55.621094 119.519531 -47.910156 115.710938 -41.097656 C 111.882812 -34.246094 106.601562 -28.902344 99.875 -25.066406 C 93.175781 -21.246094 85.699219 -19.339844 77.445312 -19.339844 Z M 77.445312 -19.339844 "/></g></g></g><g fill="#ffffff" fill-opacity="1"><g transform="translate(0.263158, 177.945935)"><g><path d="M 77.4375 2.203125 C 64.101562 2.203125 52.082031 -0.671875 41.375 -6.421875 C 30.675781 -12.171875 22.296875 -20.09375 16.234375 -30.1875 C 10.179688 -40.28125 7.15625 -51.628906 7.15625 -64.234375 C 7.15625 -76.828125 10.179688 -88.171875 16.234375 -98.265625 C 22.296875 -108.359375 30.675781 -116.28125 41.375 -122.03125 C 52.082031 -127.78125 64.101562 -130.65625 77.4375 -130.65625 C 90.78125 -130.65625 102.769531 -127.78125 113.40625 -122.03125 C 124.050781 -116.28125 132.429688 -108.359375 138.546875 -98.265625 C 144.671875 -88.171875 147.734375 -76.828125 147.734375 -64.234375 C 147.734375 -51.628906 144.671875 -40.28125 138.546875 -30.1875 C 132.429688 -20.09375 124.050781 -12.171875 113.40625 -6.421875 C 102.769531 -0.671875 90.78125 2.203125 77.4375 2.203125 Z M 77.4375 -23.125 C 85.03125 -23.125 91.882812 -24.863281 98 -28.34375 C 104.113281 -31.832031 108.914062 -36.695312 112.40625 -42.9375 C 115.894531 -49.175781 117.640625 -56.273438 117.640625 -64.234375 C 117.640625 -72.179688 115.894531 -79.273438 112.40625 -85.515625 C 108.914062 -91.753906 104.113281 -96.617188 98 -100.109375 C 91.882812 -103.597656 85.03125 -105.34375 77.4375 -105.34375 C 69.851562 -105.34375 63.003906 -103.597656 56.890625 -100.109375 C 50.773438 -96.617188 45.972656 -91.753906 42.484375 -85.515625 C 38.992188 -79.273438 37.25 -72.179688 37.25 -64.234375 C 37.25 -56.273438 38.992188 -49.175781 42.484375 -42.9375 C 45.972656 -36.695312 50.773438 -31.832031 56.890625 -28.34375 C 63.003906 -24.863281 69.851562 -23.125 77.4375 -23.125 Z M 77.4375 -23.125 "/></g></g></g></g></g></svg>